<?xml version="1.0" encoding="UTF-8" standalone="no"?>
<svg
    id="svg11024"
    height="32"
    width="32"
    version="1.1"
    xmlns="http://www.w3.org/2000/svg"
    xmlns:svg="http://www.w3.org/2000/svg"
>
    <defs>
        <linearGradient id="gradient" x1="0" y1="0" x2="0.2" y2="1">
            <stop offset="0%" stop-color="#f22" />
            <stop offset="50%" stop-color="#ff0" />
            <stop offset="60%" stop-color="#2f2" />
            <stop offset="70%" stop-color="#0ff" />
            <stop offset="90%" stop-color="#22f" />
            <stop offset="100%" stop-color="#f0f" />
        </linearGradient>
        <linearGradient id="alias" x1="0" y1="0" x2="1" y2="0.2">
            <stop offset="0%" stop-color="#2f2" />
            <stop offset="100%" stop-color="#0ff" />
        </linearGradient>
        <filter id="glow" x="-20%" y="-20%" width="140%" height="140%">
            <feGaussianBlur stdDeviation="1" result="blur1" />
            <feGaussianBlur stdDeviation="2" result="blur2" />
            <feMerge>
                <feMergeNode in="blur1" />
                <feMergeNode in="blur2" />
                <feMergeNode in="SourceGraphic" />
            </feMerge>
        </filter>
    </defs>
    <path
        d="M 15,13 11,16.013 8,16.483085 5,22.013 3,28.013 10.063,20.95 10,20 11,19 h 1 l 1,1 v 1 L 12,22 11.063,21.95 4,29.013 l 6,-2 L 15,24 16,21.013 19,17 Z"
        fill="url(#gradient)"
        stroke="none"
        filter="url(#glow)"
    />
    <path
        d="M 15,13 11,16.013 8,16.483085 5,22.013 3,28.013 10.063,20.95 10,20 11,19 h 1 l 1,1 v 1 L 12,22 11.063,21.95 4,29.013 l 6,-2 L 15,24 16,21.013 19,17 Z"
        fill="#000"
        stroke="url(#gradient)"
        stroke-width="1"
    />
</svg>
