<svg id="svg11024" height="32" width="32" xmlns="http://www.w3.org/2000/svg" xmlns:xlink="http://www.w3.org/1999/xlink">
  <filter id="filter7078" color-interpolation-filters="sRGB">
    <feGaussianBlur id="feGaussianBlur7080" stdDeviation=".657"/>
  </filter>
  <defs>
      <linearGradient id="gradient" x1="0" y1="0" x2="0" y2="1">
          <stop offset="0%" stop-color="#f22" />
          <stop offset="25%" stop-color="#ff0" />
          <stop offset="40%" stop-color="#2f2" />
          <stop offset="50%" stop-color="#0ff" />
          <stop offset="75%" stop-color="#22f" />
          <stop offset="100%" stop-color="#f0f" />
      </linearGradient>
      <filter id="glow" x="-20%" y="-20%" width="140%" height="140%">
          <feGaussianBlur stdDeviation="1" result="blur1" />
          <feGaussianBlur stdDeviation="2" result="blur2" />
          <feMerge>
              <feMergeNode in="blur1" />
              <feMergeNode in="blur2" />
              <feMergeNode in="SourceGraphic" />
          </feMerge>
      </filter>
  </defs>
  <circle id="path5519-8" cx="16" cy="16" fill="none" stroke="url(#gradient)" r="11"/>
<path id="path6414" d="m20 6.607a.277.277 0 0 0 -.282.281c0 .159.123.282.282.282a.277.277 0 0 0 .281-.282.277.277 0 0 0 -.281-.28m3.875.031c-.398-.088-1.331.327-1.375.813s-.167 1.938-.344 2.469l-1.188 3.562h-1.75l1.532.313s-.594 1.677-.594 2.03c0 .354-.56 2.282-.781 2.282s-1.792-3.058-1.969-3.5-.819-2.643-1.438-2.687c-.618-.045-.948.745-1.125 1.187-.176.442-1.346 3.607-1.656 3.563s-1.031-2.871-1.031-3.313-.125-1.594-.125-1.594l.531-.844-.875.094-.156-.844.375-.218-.438-.157s-.484-1.102-.75-1.5c-.265-.397-.687-.843-.687-.843s1.209.338 1.562.25c.354-.089 1.196-.307 1.594-.22.398.09 1.321.045 1.719 0 .398-.043.875-.25.875-.25s-.317-.587-1.156-.5c-.84.09-.902.345-1.344.345s-1.126-.377-1.656-.377-1.402.26-1.844.437-.924.965-.438 4.5-.488 3.594.22 5.406c.706 1.812.67 4.093 1.155 4.844.487.752 1.884 1.719 2.282 1.719.397 0 .828-1.199 1.093-3.188.266-1.988.863-1.873.907-2.625.044-.75.64-2.888.906-2.843.265.044.41 1.36.719 2.156.31.795.037 1.692.656 3.062s.925 1.85.969 2.47c.044.618.49 1.418.843 1.374.354-.044 1.498-2.065 1.72-2.375.22-.31.624-.687.624-.687l-.219-.375.813-.438-.375-.25.5-.375-.438-.187.844-1.22-.687-.28s.456-.23.5-.938c.044-.707-.034-1.524.187-2.187s.813-2.298.813-2.563.906-2.437.906-2.437l-.594.343s.585-3.317.188-3.406m-7.438.063a.24.24 0 0 0 -.25.25c0 .146.104.281.25.281a.293.293 0 0 0 .281-.281c0-.147-.134-.25-.28-.25m2.188.594a.315.315 0 0 0 -.313.312c0 .17.142.313.313.313.17 0 .312-.142.312-.313a.315.315 0 0 0 -.312-.312m-1.157.906s-.49.523-.843.656c-.354.133-.54.128-.938.438-.398.309-.311-.009-1.062.124s-.875.72-.875.72c.177 0 .49.119.843.03.354-.088.517-.31.782-.53.265-.222.938-.392 1.468-.657s.625-.781.625-.781m.344 1.656c-.207 0-.406.168-.406.375s.199.375.406.375a.375.375 0 1 0 0-.75m2.469.188a.217.217 0 0 0 -.219.218c0 .122.097.219.219.219a.217.217 0 0 0 .219-.219.217.217 0 0 0 -.219-.219m-1.094 1.062a.337.337 0 0 0 -.344.344c0 .195.149.375.344.375s.344-.18.344-.375a.337.337 0 0 0 -.344-.344m4.031 6.5c-.146 0-.28.104-.28.25s.134.281.28.281.25-.135.25-.281a.24.24 0 0 0 -.25-.25" fill="url(#gradient)" filter="url(#glow)"/>
  <path id="path6414" d="m20 6.607a.277.277 0 0 0 -.282.281c0 .159.123.282.282.282a.277.277 0 0 0 .281-.282.277.277 0 0 0 -.281-.28m3.875.031c-.398-.088-1.331.327-1.375.813s-.167 1.938-.344 2.469l-1.188 3.562h-1.75l1.532.313s-.594 1.677-.594 2.03c0 .354-.56 2.282-.781 2.282s-1.792-3.058-1.969-3.5-.819-2.643-1.438-2.687c-.618-.045-.948.745-1.125 1.187-.176.442-1.346 3.607-1.656 3.563s-1.031-2.871-1.031-3.313-.125-1.594-.125-1.594l.531-.844-.875.094-.156-.844.375-.218-.438-.157s-.484-1.102-.75-1.5c-.265-.397-.687-.843-.687-.843s1.209.338 1.562.25c.354-.089 1.196-.307 1.594-.22.398.09 1.321.045 1.719 0 .398-.043.875-.25.875-.25s-.317-.587-1.156-.5c-.84.09-.902.345-1.344.345s-1.126-.377-1.656-.377-1.402.26-1.844.437-.924.965-.438 4.5-.488 3.594.22 5.406c.706 1.812.67 4.093 1.155 4.844.487.752 1.884 1.719 2.282 1.719.397 0 .828-1.199 1.093-3.188.266-1.988.863-1.873.907-2.625.044-.75.64-2.888.906-2.843.265.044.41 1.36.719 2.156.31.795.037 1.692.656 3.062s.925 1.85.969 2.47c.044.618.49 1.418.843 1.374.354-.044 1.498-2.065 1.72-2.375.22-.31.624-.687.624-.687l-.219-.375.813-.438-.375-.25.5-.375-.438-.187.844-1.22-.687-.28s.456-.23.5-.938c.044-.707-.034-1.524.187-2.187s.813-2.298.813-2.563.906-2.437.906-2.437l-.594.343s.585-3.317.188-3.406m-7.438.063a.24.24 0 0 0 -.25.25c0 .146.104.281.25.281a.293.293 0 0 0 .281-.281c0-.147-.134-.25-.28-.25m2.188.594a.315.315 0 0 0 -.313.312c0 .17.142.313.313.313.17 0 .312-.142.312-.313a.315.315 0 0 0 -.312-.312m-1.157.906s-.49.523-.843.656c-.354.133-.54.128-.938.438-.398.309-.311-.009-1.062.124s-.875.72-.875.72c.177 0 .49.119.843.03.354-.088.517-.31.782-.53.265-.222.938-.392 1.468-.657s.625-.781.625-.781m.344 1.656c-.207 0-.406.168-.406.375s.199.375.406.375a.375.375 0 1 0 0-.75m2.469.188a.217.217 0 0 0 -.219.218c0 .122.097.219.219.219a.217.217 0 0 0 .219-.219.217.217 0 0 0 -.219-.219m-1.094 1.062a.337.337 0 0 0 -.344.344c0 .195.149.375.344.375s.344-.18.344-.375a.337.337 0 0 0 -.344-.344m4.031 6.5c-.146 0-.28.104-.28.25s.134.281.28.281.25-.135.25-.281a.24.24 0 0 0 -.25-.25" fill="#000" stroke="url(#gradient)" stroke-width="0.5"/>
</svg>
